<?xml version="1.0" encoding="utf-8"?>
<!-- Generator: Adobe Illustrator 24.0.1, SVG Export Plug-In . SVG Version: 6.00 Build 0)  -->
<svg version="1.1" id="Livello_1" xmlns="http://www.w3.org/2000/svg" xmlns:xlink="http://www.w3.org/1999/xlink" x="0px" y="0px"
	 viewBox="0 0 331 329" style="enable-background:new 0 0 331 329;" xml:space="preserve">
<style type="text/css">
	.st0{fill:none;stroke:#715094;stroke-width:7;stroke-linecap:round;stroke-linejoin:round;stroke-miterlimit:10;}
	.st1{fill:#715094;}
	.st2{font-family:'Cormorant-Regular';}
	.st3{font-size:28.3798px;}
</style>
<path class="st0" d="M198.61,51.14c-19.97,2.6-39.1,9.44-58.52,14.74c-19.43,5.3-39.84,9.1-59.64,5.43
	c-5.7-1.05-11.49-2.83-15.8-6.7c-20.19-18.09,19.87-36.79,32.68-43C118.57,11.33,142.07,6,165.68,6c86.71,0,157,70.29,157,157
	s-70.29,157-157,157s-157-70.29-157-157c0-40.84,15.59-78.04,41.15-105.96"/>
<g>
	<g>
		<path class="st1" d="M119.77,72.75c0.76,24.72,0.12,49.46-2.01,74.1c-1.01,11.65-2.33,23.31-5.02,34.7
			c-2.49,10.51-5.98,21.95-12.48,30.74c-3.42,4.63-8.69,7.95-14.53,5.82c-6.43-2.35-8.95-10-5.41-15.8c3.13-5.14,10.78-6.68,16-8.79
			c5.45-2.21,10.86-4.51,16.26-6.86c19.08-8.32,39.01-16.3,56.46-27.81c7.53-4.96,14.61-10.75,20.35-17.73
			c2.88-3.5,11.68-12.81,6.76-17.24c-6-5.4-15.66,1.97-20.15,5.85c-7.17,6.2-13.32,13.62-18.23,21.72c-4.91,8.11-8.62,17-10.88,26.2
			c-1.86,7.58-4.74,18.91-1.31,26.36c6.83,14.81,28.52,0.45,35.93-6.27c11.83-10.73,32.71-41.21,50.9-26.68
			c5.16,4.12,10.5,6.08,15.92,1.22c4.85-4.36,8.28-14.52,15.86-14.22c1.93,0.08,1.93-2.92,0-3c-5.47-0.22-8.99,3.83-12.04,7.86
			c-1.78,2.35-3.42,4.92-5.61,6.93c-4.18,3.83-7.81,2.4-12-0.9c-6.94-5.46-13.65-5.89-21.81-2.23c-6.66,2.99-12.32,7.81-17.48,12.88
			c-10.51,10.32-23.21,28.48-39.95,27.45c-13.09-0.81-7.07-22.99-4.92-30.86c2.64-9.67,6.89-18.86,12.51-27.16
			c5.47-8.08,13.03-17.3,21.81-21.93c2.56-1.35,10.8-4.45,8.96,2.45c-0.45,1.69-2.13,3.63-3.1,5.06c-2.96,4.36-6.5,8.3-10.37,11.87
			c-14.23,13.15-32.42,21.11-49.86,29c-10.94,4.96-21.9,9.88-33.02,14.44c-7.44,3.04-17.84,5.02-20.82,13.58
			c-2.12,6.1,0.15,12.96,5.76,16.27c6.44,3.8,13.7,1.84,18.59-3.43c6.85-7.39,10.54-18.54,13.25-28.03
			c3.19-11.16,4.84-22.71,6.01-34.23c2.74-26.99,3.51-54.19,2.68-81.3C122.72,70.82,119.72,70.82,119.77,72.75L119.77,72.75z"/>
	</g>
</g>
<text transform="matrix(1 0 0 1 93.6936 275.7354)" class="st1 st2 st3">Jessica Russo</text>
</svg>
